<svg id="App_Store" data-name="App Store" xmlns="http://www.w3.org/2000/svg" viewBox="0 0 217.61 64.05"><defs><style>.cls-1{fill:#a7a9ac;}.cls-2{fill:#fff;}</style></defs><rect x="0.81" y="0.81" width="216" height="62.44" rx="7.38"/><path class="cls-1" d="M234.88,81.85H33.65a8.19,8.19,0,0,1-8.19-8.19V26a8.19,8.19,0,0,1,8.19-8.19H234.88A8.19,8.19,0,0,1,243.07,26V73.66A8.19,8.19,0,0,1,234.88,81.85ZM33.65,19.41A6.59,6.59,0,0,0,27.07,26V73.66a6.59,6.59,0,0,0,6.58,6.58H234.88a6.59,6.59,0,0,0,6.58-6.58V26a6.59,6.59,0,0,0-6.58-6.58Z" transform="translate(-25.46 -17.8)"/><path class="cls-2" d="M97.91,36,97,39H95l3.37-10.53h2.45L104.26,39H102.2l-1-3Zm3-1.45L100.09,32c-.2-.64-.37-1.36-.53-2h0c-.15.61-.31,1.35-.5,2l-.81,2.59Z" transform="translate(-25.46 -17.8)"/><path class="cls-2" d="M107.13,31.39l1.23,3.86c.22.67.38,1.28.52,1.9h.05c.14-.62.31-1.21.51-1.9l1.22-3.86h2L109.77,39h-1.89l-2.83-7.61Z" transform="translate(-25.46 -17.8)"/><path class="cls-2" d="M120.33,37.17a10.59,10.59,0,0,0,.13,1.83h-1.73l-.14-.85h0a2.76,2.76,0,0,1-2.25,1,2.26,2.26,0,0,1-2.39-2.27c0-1.9,1.7-2.88,4.51-2.87v-.12c0-.5-.2-1.33-1.54-1.33a4,4,0,0,0-2.05.56l-.37-1.25a5.49,5.49,0,0,1,2.75-.67c2.43,0,3.13,1.55,3.13,3.22Zm-1.87-1.89c-1.36,0-2.65.27-2.65,1.42a1,1,0,0,0,1.09,1.09,1.57,1.57,0,0,0,1.51-1,1.21,1.21,0,0,0,0-.42Z" transform="translate(-25.46 -17.8)"/><path class="cls-2" d="M124,30.3a1,1,0,0,1-1.06-1,1.08,1.08,0,0,1,2.15,0,1,1,0,0,1-1.07,1Zm-1,8.7V31.39H125V39Z" transform="translate(-25.46 -17.8)"/><path class="cls-2" d="M127.73,27.9h1.92V39h-1.92Z" transform="translate(-25.46 -17.8)"/><path class="cls-2" d="M138.33,37.17a10.7,10.7,0,0,0,.12,1.83h-1.73l-.14-.85h-.05a2.76,2.76,0,0,1-2.25,1,2.25,2.25,0,0,1-2.38-2.27c0-1.9,1.7-2.88,4.51-2.87v-.12c0-.5-.21-1.33-1.55-1.33a4,4,0,0,0-2,.56l-.38-1.25a5.52,5.52,0,0,1,2.75-.67c2.43,0,3.14,1.55,3.14,3.22Zm-1.88-1.89c-1.35,0-2.65.27-2.65,1.42a1,1,0,0,0,1.09,1.09,1.59,1.59,0,0,0,1.52-1,1.5,1.5,0,0,0,0-.42Z" transform="translate(-25.46 -17.8)"/><path class="cls-2" d="M141,27.9H143v4.54h0a2.77,2.77,0,0,1,2.44-1.22c1.86,0,3.18,1.55,3.17,3.86,0,2.73-1.74,4.09-3.45,4.09a2.63,2.63,0,0,1-2.41-1.31h0L142.62,39H141c0-.52.06-1.36.06-2.13Zm1.92,8a2.22,2.22,0,0,0,0,.45,1.75,1.75,0,0,0,1.7,1.34c1.2,0,1.94-.95,1.94-2.49,0-1.35-.64-2.44-1.92-2.44a1.79,1.79,0,0,0-1.71,1.4,2.54,2.54,0,0,0-.06.5Z" transform="translate(-25.46 -17.8)"/><path class="cls-2" d="M150.86,27.9h1.92V39h-1.92Z" transform="translate(-25.46 -17.8)"/><path class="cls-2" d="M156.91,35.73a2.07,2.07,0,0,0,2.34,2,6.2,6.2,0,0,0,2.11-.34l.28,1.31a6.82,6.82,0,0,1-2.65.48,3.59,3.59,0,0,1-3.92-3.84c0-2.11,1.28-4.09,3.72-4.09s3.27,2,3.27,3.7a4.86,4.86,0,0,1-.06.81Zm3.34-1.34a1.63,1.63,0,0,0-1.57-1.86,1.89,1.89,0,0,0-1.77,1.86Z" transform="translate(-25.46 -17.8)"/><path class="cls-2" d="M171.54,39.17a3.68,3.68,0,0,1-3.81-3.92,3.75,3.75,0,0,1,3.93-4,3.65,3.65,0,0,1,3.78,3.9,3.77,3.77,0,0,1-3.89,4.05Zm.06-1.39c1.09,0,1.86-1.06,1.86-2.61,0-1.19-.54-2.56-1.85-2.56s-1.9,1.33-1.9,2.59c0,1.47.73,2.58,1.87,2.58Z" transform="translate(-25.46 -17.8)"/><path class="cls-2" d="M177.7,33.66c0-.88,0-1.61-.06-2.27h1.67l.09,1.14h0a2.79,2.79,0,0,1,2.43-1.31c1.33,0,2.7.86,2.7,3.26V39h-1.92V34.7c0-1.09-.4-1.92-1.45-1.92a1.63,1.63,0,0,0-1.5,1.13,1.82,1.82,0,0,0-.09.61V39H177.7Z" transform="translate(-25.46 -17.8)"/><path class="cls-2" d="M193.43,29.44v1.95h1.83v1.44h-1.83v3.34c0,.94.25,1.4,1,1.4a2.61,2.61,0,0,0,.75-.07l0,1.45a4.18,4.18,0,0,1-1.39.2,2.2,2.2,0,0,1-1.65-.62,3,3,0,0,1-.61-2.14V32.83h-1.08V31.39h1.08V30Z" transform="translate(-25.46 -17.8)"/><path class="cls-2" d="M197.39,27.9h1.92v4.52h0a2.65,2.65,0,0,1,1-.86,2.78,2.78,0,0,1,1.32-.34c1.3,0,2.66.86,2.66,3.3V39h-1.92V34.72c0-1.09-.41-1.94-1.47-1.94a1.6,1.6,0,0,0-1.5,1.08,1.77,1.77,0,0,0-.08.58V39h-1.92Z" transform="translate(-25.46 -17.8)"/><path class="cls-2" d="M208.36,35.73a2.07,2.07,0,0,0,2.34,2,6.2,6.2,0,0,0,2.11-.34l.28,1.31a6.82,6.82,0,0,1-2.65.48,3.59,3.59,0,0,1-3.92-3.84c0-2.11,1.28-4.09,3.72-4.09s3.27,2,3.27,3.7a4.86,4.86,0,0,1-.06.81Zm3.34-1.34a1.63,1.63,0,0,0-1.57-1.86,1.89,1.89,0,0,0-1.77,1.86Z" transform="translate(-25.46 -17.8)"/><path class="cls-2" d="M74,49.2a9.38,9.38,0,0,1,4.47-7.86,9.59,9.59,0,0,0-7.56-4.08c-3.18-.34-6.26,1.9-7.88,1.9s-4.15-1.87-6.83-1.82a10.09,10.09,0,0,0-8.47,5.17c-3.66,6.34-.93,15.65,2.58,20.78,1.76,2.5,3.81,5.31,6.49,5.21s3.6-1.68,6.77-1.68,4.07,1.68,6.8,1.61,4.59-2.52,6.28-5.05a20.69,20.69,0,0,0,2.88-5.85A9.06,9.06,0,0,1,74,49.2" transform="translate(-25.46 -17.8)"/><path class="cls-2" d="M68.85,33.89A9.19,9.19,0,0,0,71,27.28a9.37,9.37,0,0,0-6.07,3.14,8.74,8.74,0,0,0-2.16,6.36,7.76,7.76,0,0,0,6.12-2.89" transform="translate(-25.46 -17.8)"/><path class="cls-2" d="M112,68.08h-3.66l-2-6.3h-7l-1.92,6.3H93.87l6.91-21.43H105Zm-6.26-8.94-1.81-5.6c-.2-.57-.56-1.91-1.09-4h-.06c-.21.91-.55,2.25-1,4L100,59.14Z" transform="translate(-25.46 -17.8)"/><path class="cls-2" d="M129.72,60.16a8.81,8.81,0,0,1-2.13,6.24,6.28,6.28,0,0,1-4.74,2,4.74,4.74,0,0,1-4.39-2.19h-.06v8.14H115V57.71c0-1.65,0-3.34-.13-5.09h3l.2,2.45h.06a6.12,6.12,0,0,1,9.78-.6,8.51,8.51,0,0,1,1.83,5.69m-3.5.13a6.33,6.33,0,0,0-1-3.72,3.64,3.64,0,0,0-5.29-.69,3.91,3.91,0,0,0-1.35,2.22,4.25,4.25,0,0,0-.16,1v2.58a4.15,4.15,0,0,0,1,2.85,3.44,3.44,0,0,0,2.69,1.16,3.51,3.51,0,0,0,3-1.5,6.57,6.57,0,0,0,1.08-3.94" transform="translate(-25.46 -17.8)"/><path class="cls-2" d="M147.5,60.16a8.77,8.77,0,0,1-2.14,6.24,6.24,6.24,0,0,1-4.73,2,4.74,4.74,0,0,1-4.39-2.19h-.06v8.14h-3.44V57.71c0-1.65,0-3.34-.13-5.09h3l.2,2.45h.06a6.12,6.12,0,0,1,9.78-.6,8.51,8.51,0,0,1,1.83,5.69m-3.5.13a6.33,6.33,0,0,0-1-3.72,3.64,3.64,0,0,0-5.29-.69,3.91,3.91,0,0,0-1.35,2.22,4.25,4.25,0,0,0-.16,1v2.58a4.15,4.15,0,0,0,1,2.85,3.44,3.44,0,0,0,2.69,1.16,3.51,3.51,0,0,0,3-1.5A6.57,6.57,0,0,0,144,60.29" transform="translate(-25.46 -17.8)"/><path class="cls-2" d="M167.38,62.07a5.71,5.71,0,0,1-1.91,4.45,8.4,8.4,0,0,1-5.84,1.88,10.28,10.28,0,0,1-5.56-1.34l.8-2.86a9.44,9.44,0,0,0,5,1.37,4.64,4.64,0,0,0,3-.88,2.85,2.85,0,0,0,1.08-2.34,3,3,0,0,0-.89-2.2,8.34,8.34,0,0,0-3-1.65q-5.62-2.11-5.63-6.15a5.45,5.45,0,0,1,2-4.33,7.79,7.79,0,0,1,5.25-1.69,10.52,10.52,0,0,1,4.87,1l-.86,2.8a8.51,8.51,0,0,0-4.1-1,4.11,4.11,0,0,0-2.83.89A2.56,2.56,0,0,0,157.9,52a2.63,2.63,0,0,0,1,2.1A11,11,0,0,0,162,55.74a10.45,10.45,0,0,1,4.07,2.61,5.47,5.47,0,0,1,1.31,3.72" transform="translate(-25.46 -17.8)"/><path class="cls-2" d="M178.73,55.2H175v7.51c0,1.9.66,2.86,2,2.86a5.9,5.9,0,0,0,1.52-.16l.1,2.61a7.88,7.88,0,0,1-2.67.38,4.09,4.09,0,0,1-3.18-1.24A6.11,6.11,0,0,1,171.57,63V55.2h-2.25V52.62h2.25V49.79l3.38-1v3.85h3.78Z" transform="translate(-25.46 -17.8)"/><path class="cls-2" d="M195.81,60.23a8.52,8.52,0,0,1-2,5.85,7.28,7.28,0,0,1-5.66,2.35,6.9,6.9,0,0,1-5.43-2.26,8.19,8.19,0,0,1-2-5.69,8.37,8.37,0,0,1,2.08-5.88,7.21,7.21,0,0,1,5.62-2.29,7.09,7.09,0,0,1,5.47,2.25,8.14,8.14,0,0,1,2,5.67m-3.56.11a6.93,6.93,0,0,0-.93-3.67,3.38,3.38,0,0,0-3.08-1.85,3.45,3.45,0,0,0-3.15,1.85,7.14,7.14,0,0,0-.92,3.73,7,7,0,0,0,.92,3.67,3.47,3.47,0,0,0,3.12,1.85A3.43,3.43,0,0,0,191.29,64a6.94,6.94,0,0,0,1-3.7" transform="translate(-25.46 -17.8)"/><path class="cls-2" d="M207,55.64a6.21,6.21,0,0,0-1.08-.09,3.27,3.27,0,0,0-2.8,1.37,5.16,5.16,0,0,0-.86,3v8.11H198.8l0-10.59c0-1.78,0-3.4-.12-4.87h3l.12,3h.09a5.44,5.44,0,0,1,1.72-2.45,4.2,4.2,0,0,1,2.49-.82,5.48,5.48,0,0,1,.85.06Z" transform="translate(-25.46 -17.8)"/><path class="cls-2" d="M222.33,59.62a8.6,8.6,0,0,1-.12,1.56h-10.3a4.5,4.5,0,0,0,1.49,3.5,5.1,5.1,0,0,0,3.37,1.08,11.41,11.41,0,0,0,4.17-.73l.54,2.38a12.89,12.89,0,0,1-5.19,1,7.49,7.49,0,0,1-5.64-2.12,7.79,7.79,0,0,1-2.05-5.68,8.83,8.83,0,0,1,1.91-5.82,6.57,6.57,0,0,1,5.4-2.48A5.76,5.76,0,0,1,221,54.75a8.37,8.37,0,0,1,1.36,4.87m-3.27-.89a4.64,4.64,0,0,0-.67-2.64,3,3,0,0,0-2.74-1.43,3.27,3.27,0,0,0-2.73,1.4,5.08,5.08,0,0,0-1,2.67Z" transform="translate(-25.46 -17.8)"/></svg>