<svg id="Google_Play" data-name="Google Play" xmlns="http://www.w3.org/2000/svg" xmlns:xlink="http://www.w3.org/1999/xlink" viewBox="0 0 217.61 64.05"><defs><style>.cls-1{fill:#a7a9ac;}.cls-2{fill:#fff;}.cls-3{fill:#5bc9f4;}.cls-4{fill:url(#linear-gradient);}.cls-5{fill:url(#linear-gradient-2);}.cls-6{fill:url(#linear-gradient-3);}</style><linearGradient id="linear-gradient" x1="75.65" y1="126.8" x2="36.76" y2="126.8" gradientUnits="userSpaceOnUse"><stop offset="0" stop-color="#fee000"/><stop offset="0.42" stop-color="#fbbc0e"/><stop offset="0.78" stop-color="#faa418"/><stop offset="1" stop-color="#f99b1c"/></linearGradient><linearGradient id="linear-gradient-2" x1="65.56" y1="130.49" x2="28.98" y2="167.06" gradientUnits="userSpaceOnUse"><stop offset="0" stop-color="#ef4547"/><stop offset="1" stop-color="#c6186d"/></linearGradient><linearGradient id="linear-gradient-3" x1="28.82" y1="86.38" x2="58.68" y2="116.24" gradientUnits="userSpaceOnUse"><stop offset="0" stop-color="#279e6f"/><stop offset="0.04" stop-color="#2ba06f"/><stop offset="0.46" stop-color="#53b26c"/><stop offset="0.8" stop-color="#6bbd6a"/><stop offset="1" stop-color="#74c169"/></linearGradient></defs><rect x="0.81" y="0.81" width="216" height="62.44" rx="7.38"/><path class="cls-1" d="M234.88,158.64H33.65a8.19,8.19,0,0,1-8.19-8.19V102.78a8.19,8.19,0,0,1,8.19-8.19H234.88a8.19,8.19,0,0,1,8.19,8.19v47.67A8.19,8.19,0,0,1,234.88,158.64ZM33.65,96.2a6.59,6.59,0,0,0-6.58,6.58v47.67A6.59,6.59,0,0,0,33.65,157H234.88a6.59,6.59,0,0,0,6.58-6.58V102.78a6.59,6.59,0,0,0-6.58-6.58Z" transform="translate(-25.46 -94.59)"/><path class="cls-2" d="M135.24,129.62a6.84,6.84,0,1,0,6.86,6.84A6.74,6.74,0,0,0,135.24,129.62Zm0,11a4.16,4.16,0,1,1,3.86-4.14A4,4,0,0,1,135.24,140.6Zm-15-11a6.84,6.84,0,1,0,6.86,6.84A6.74,6.74,0,0,0,120.26,129.62Zm0,11a4.16,4.16,0,1,1,3.86-4.14A4,4,0,0,1,120.26,140.6Zm-17.82-8.88v2.9h6.94a6.06,6.06,0,0,1-1.58,3.65,7.11,7.11,0,0,1-5.36,2.13,7.73,7.73,0,0,1,0-15.45,7.38,7.38,0,0,1,5.23,2.08l2-2a10.12,10.12,0,0,0-7.28-2.93,10.63,10.63,0,1,0,0,21.25,9.73,9.73,0,0,0,7.41-3,9.58,9.58,0,0,0,2.51-6.79,9.8,9.8,0,0,0-.15-1.81ZM175.31,134a6.36,6.36,0,0,0-5.86-4.35,6.5,6.5,0,0,0-6.45,6.84,6.7,6.7,0,0,0,6.79,6.84,6.8,6.8,0,0,0,5.7-3l-2.33-1.56a3.91,3.91,0,0,1-3.37,1.89,3.47,3.47,0,0,1-3.32-2.07l9.15-3.78ZM166,136.25a3.75,3.75,0,0,1,3.58-4,2.66,2.66,0,0,1,2.54,1.45Zm-7.44,6.63h3v-20.1h-3Zm-4.92-11.73h-.1a4.73,4.73,0,0,0-3.6-1.53,6.85,6.85,0,0,0,0,13.68,4.67,4.67,0,0,0,3.6-1.56h.1v1c0,2.62-1.4,4-3.65,4a3.8,3.8,0,0,1-3.45-2.44l-2.62,1.09a6.54,6.54,0,0,0,6.07,4c3.52,0,6.5-2.07,6.5-7.13V130h-2.85Zm-3.44,9.45a4.16,4.16,0,0,1,0-8.29c2,0,3.65,1.76,3.65,4.17A3.82,3.82,0,0,1,150.18,140.6Zm39.21-17.82H182.2v20.1h3v-7.61h4.19a6.25,6.25,0,1,0,0-12.49Zm.08,9.69H185.2v-6.89h4.27a3.45,3.45,0,1,1,0,6.89ZM208,129.58a5.63,5.63,0,0,0-5.35,3.08l2.66,1.11a2.85,2.85,0,0,1,2.75-1.47c1.55,0,3.13.93,3.15,2.58v.21a6.63,6.63,0,0,0-3.13-.78c-2.87,0-5.79,1.58-5.79,4.53,0,2.69,2.35,4.43,5,4.43a4.24,4.24,0,0,0,3.83-2h.1v1.55h2.9v-7.71C214.12,131.57,211.45,129.58,208,129.58Zm-.36,11c-1,0-2.35-.49-2.35-1.71,0-1.55,1.71-2.14,3.18-2.14a5.31,5.31,0,0,1,2.74.67A3.64,3.64,0,0,1,207.65,140.6Zm17-10.58-3.44,8.72h-.1L217.56,130h-3.23l5.35,12.18L216.63,149h3.13L228,130Zm-27,12.86h3v-20.1h-3Z" transform="translate(-25.46 -94.59)"/><path class="cls-3" d="M42.43,106.77a3.21,3.21,0,0,0-.74,2.26v35.54a3.21,3.21,0,0,0,.74,2.26l.12.12L62.46,127v-.47L42.55,106.66Z" transform="translate(-25.46 -94.59)"/><path class="cls-4" d="M69.09,133.67,62.46,127v-.47l6.64-6.64.15.08,7.86,4.47c2.25,1.28,2.25,3.36,0,4.64l-7.86,4.47Z" transform="translate(-25.46 -94.59)"/><path class="cls-5" d="M69.25,133.59l-6.79-6.79-20,20c.74.78,2,.88,3.34.1l23.48-13.34" transform="translate(-25.46 -94.59)"/><path class="cls-6" d="M69.25,120,45.77,106.67c-1.38-.78-2.6-.68-3.34.1l20,20Z" transform="translate(-25.46 -94.59)"/><path class="cls-2" d="M99.38,107.91a3.4,3.4,0,0,0-2.27-.88,3.63,3.63,0,0,0,0,7.26,2.74,2.74,0,0,0,3-2.55h-2.7v-1.11h4.15c0,3.32-1.77,4.89-4.47,4.89a4.86,4.86,0,0,1,0-9.71,4.66,4.66,0,0,1,3.19,1.25Z" transform="translate(-25.46 -94.59)"/><path class="cls-2" d="M108.93,105.92v1.19H104.6v3h3.78v1.2H104.6v2.86h4.47v1.19h-5.74v-9.46Z" transform="translate(-25.46 -94.59)"/><path class="cls-2" d="M117.21,105.92v1.21h-2.87v8.25h-1.29v-8.25h-2.87v-1.21Z" transform="translate(-25.46 -94.59)"/><path class="cls-2" d="M123.34,105.92v9.46h-1.28v-9.46Z" transform="translate(-25.46 -94.59)"/><path class="cls-2" d="M132.05,105.92v1.21h-2.87v8.25h-1.29v-8.25H125v-1.21Z" transform="translate(-25.46 -94.59)"/><path class="cls-2" d="M141.06,105.81a4.86,4.86,0,1,1-4.78,4.86A4.8,4.8,0,0,1,141.06,105.81Zm0,8.47a3.62,3.62,0,1,0-3.5-3.61A3.52,3.52,0,0,0,141.06,114.28Z" transform="translate(-25.46 -94.59)"/><path class="cls-2" d="M153.42,115.38l-4.31-7.13v7.13h-1.28v-9.46h1.26l4.27,7.07v-7.07h1.28v9.46Z" transform="translate(-25.46 -94.59)"/></svg>